<?xml version="1.0" standalone="no"?>
<!DOCTYPE svg PUBLIC "-//W3C//DTD SVG 20010904//EN"
 "http://www.w3.org/TR/2001/REC-SVG-20010904/DTD/svg10.dtd">
<svg version="1.0" xmlns="http://www.w3.org/2000/svg"
 width="800.000000pt" height="800.000000pt" viewBox="0 0 800.000000 800.000000"
 preserveAspectRatio="xMidYMid meet">
<metadata>
Created by potrace 1.14, written by Peter Selinger 2001-2017
</metadata>
<g transform="translate(0.000000,800.000000) scale(0.100000,-0.100000)"
fill="#000000" stroke="none">
<path d="M3702 7989 c-452 -37 -887 -158 -1297 -359 -393 -193 -661 -385 -975
-700 -309 -308 -505 -580 -695 -965 -335 -678 -446 -1411 -330 -2169 110 -710
427 -1363 928 -1908 l98 -108 -475 0 -476 0 0 -890 0 -890 3515 0 3515 0 0
890 0 890 -476 0 -475 0 98 107 c501 546 818 1199 928 1909 158 1030 -111
2034 -767 2856 -105 132 -403 430 -533 534 -459 366 -953 604 -1510 729 -331
74 -734 102 -1073 74z m608 -240 c774 -65 1517 -415 2081 -978 609 -609 957
-1389 998 -2236 30 -619 -96 -1198 -378 -1740 -175 -338 -434 -679 -698 -921
l-103 -94 -125 0 c-69 0 -125 2 -125 4 0 2 51 47 113 99 881 745 1302 1886
1112 3013 -163 965 -741 1790 -1599 2284 -250 144 -523 252 -816 325 -1101
271 -2254 -50 -3055 -850 -639 -639 -980 -1493 -952 -2385 23 -720 261 -1367
711 -1935 104 -130 302 -332 444 -452 61 -52 112 -97 112 -99 0 -2 -56 -4
-125 -4 l-125 0 -103 94 c-264 242 -523 583 -698 921 -283 543 -409 1128 -378
1744 43 848 390 1624 998 2232 721 719 1681 1066 2711 978z m40 -214 c604 -70
1158 -301 1640 -683 127 -101 396 -372 499 -502 377 -475 606 -1030 676 -1633
18 -161 21 -509 5 -667 -76 -745 -399 -1422 -930 -1950 -140 -139 -348 -315
-373 -315 -13 0 -17 44 -37 485 -16 344 -17 853 -1 943 30 176 165 359 321
435 41 20 78 41 82 47 4 5 8 25 8 43 0 25 11 47 44 85 323 381 424 1055 241
1604 -69 207 -165 366 -304 504 -82 81 -111 103 -191 143 -118 58 -217 80
-322 72 -371 -27 -690 -393 -798 -914 -82 -399 -29 -841 143 -1176 48 -94 144
-235 180 -265 11 -9 17 -28 17 -57 l0 -43 73 -35 c90 -44 172 -116 232 -206
109 -163 120 -244 111 -760 -5 -323 -14 -546 -32 -812 l-6 -98 -743 0 -743 0
-6 202 c-17 567 -17 707 -2 948 31 495 39 926 31 1730 -11 1187 -16 1398 -37
1437 -52 94 -150 84 -256 -25 -169 -173 -297 -581 -357 -1137 -88 -818 -13
-1619 203 -2155 44 -108 53 -208 59 -627 l6 -373 -715 0 -715 0 -7 123 c-39
719 -56 1508 -37 1706 9 100 15 124 51 197 72 148 184 265 309 321 l54 24 -6
127 c-8 151 -114 1707 -123 1805 -7 74 -24 92 -24 25 0 -58 -68 -1404 -76
-1495 -5 -64 -8 -73 -25 -73 -11 0 -21 6 -24 13 -2 6 -22 356 -45 777 -23 421
-45 779 -49 795 -8 30 -8 30 -14 5 -3 -14 -24 -374 -47 -800 -22 -426 -45
-779 -50 -784 -17 -17 -40 3 -40 36 1 60 -82 1563 -86 1567 -2 2 -6 2 -9 -1
-3 -3 -25 -360 -50 -794 -25 -434 -47 -795 -50 -801 -5 -15 -31 -17 -39 -5 -3
5 -23 366 -46 802 -23 437 -43 796 -46 799 -2 2 -6 2 -8 0 -2 -2 -29 -377 -60
-834 -31 -456 -61 -899 -67 -983 -6 -84 -9 -159 -6 -166 3 -8 39 -31 79 -53
130 -67 252 -212 311 -369 22 -58 22 -65 22 -579 0 -482 -23 -1165 -43 -1319
l-7 -49 -105 84 c-138 110 -364 336 -474 474 -209 261 -403 601 -515 906 -88
237 -154 528 -181 789 -16 157 -13 506 5 667 69 599 300 1159 676 1633 103
130 372 401 499 502 476 378 1031 611 1625 682 168 19 555 20 725 1z m-397
-4843 c133 -3 148 -5 145 -20 -3 -15 -21 -17 -148 -20 -138 -3 -146 -2 -162
19 -10 12 -18 26 -18 31 0 6 7 7 18 2 9 -5 84 -10 165 -12z m3457 -1802 l0
-800 -3415 0 -3415 0 0 800 0 800 3415 0 3415 0 0 -800z"/>
<path d="M620 890 l0 -750 3375 0 3375 0 0 750 0 750 -3375 0 -3375 0 0 -750z
m1317 544 c96 -20 159 -51 206 -103 126 -139 14 -320 -254 -409 -106 -35 -246
-62 -321 -62 -39 0 -47 -3 -41 -14 27 -48 240 -290 301 -342 161 -137 359
-201 474 -151 49 21 81 71 73 115 -4 24 -2 32 9 32 22 0 29 -54 16 -110 -44
-182 -334 -172 -565 19 -77 64 -153 154 -260 307 -47 67 -89 125 -94 128 -12
8 -121 -217 -121 -248 0 -37 29 -33 70 9 41 42 51 38 20 -7 -59 -85 -97 -110
-144 -92 -31 12 -13 85 63 249 24 52 37 91 31 93 -15 5 -40 32 -40 42 0 5 11
17 24 25 19 13 29 14 44 6 18 -10 24 -3 61 63 22 40 43 86 46 102 3 16 8 38
10 50 7 31 68 103 115 135 48 32 87 36 130 14 36 -19 40 -45 7 -45 -55 0 -145
-97 -256 -274 -60 -95 -54 -98 144 -59 284 55 502 212 471 339 -10 39 -74 97
-122 112 -176 52 -457 31 -649 -49 -100 -41 -190 -123 -200 -181 -11 -61 0
-85 55 -116 52 -28 62 -42 33 -42 -28 0 -92 43 -113 76 -31 46 -27 119 9 177
56 87 207 175 356 207 115 24 307 26 412 4z m1327 -217 c21 -16 15 -48 -14
-75 -16 -15 -90 -137 -90 -148 0 -3 41 -2 90 2 61 5 90 3 90 -4 0 -11 -61 -26
-152 -37 -57 -7 -58 -8 -87 -59 -44 -77 -98 -206 -106 -252 -5 -32 -2 -45 14
-65 l20 -24 45 24 c47 24 169 138 224 208 65 85 236 195 328 212 62 12 123 0
147 -30 19 -23 15 -41 -5 -21 -7 7 -37 12 -69 12 -77 0 -179 -51 -269 -136
-67 -63 -130 -161 -130 -202 0 -102 84 -59 292 151 118 118 141 137 160 132
42 -13 44 -23 15 -75 -38 -67 -67 -155 -67 -201 0 -38 20 -69 44 -69 44 0 222
168 277 262 65 110 84 128 135 128 25 0 44 -5 44 -11 0 -6 -21 -34 -46 -62
-57 -64 -100 -136 -120 -205 -14 -49 -14 -55 1 -79 14 -20 22 -24 46 -19 78
15 202 150 316 343 51 87 56 93 81 87 57 -14 57 -24 3 -120 -90 -157 -118
-261 -82 -304 l20 -25 46 24 c89 47 229 200 304 333 26 46 29 57 16 62 -27 10
-16 46 30 95 43 46 119 91 131 78 4 -4 -11 -37 -34 -74 l-40 -68 98 -5 c55 -3
104 -10 110 -16 8 -8 1 -25 -24 -60 -97 -135 -137 -200 -156 -251 -22 -60 -20
-100 6 -110 26 -10 121 65 232 185 158 169 295 254 412 255 62 0 110 -21 110
-49 0 -12 -4 -13 -21 -3 -34 18 -129 6 -190 -24 -145 -71 -291 -249 -271 -330
16 -62 89 -19 273 160 l156 153 32 -11 c18 -6 31 -14 29 -18 -2 -3 -19 -40
-39 -81 -62 -127 -71 -218 -24 -236 25 -10 106 46 190 130 76 77 81 86 109
171 15 50 33 96 38 103 12 14 64 16 73 2 3 -5 -19 -72 -50 -149 -30 -77 -55
-142 -55 -145 0 -3 41 40 91 95 152 167 255 242 299 219 30 -16 25 -43 -30
-162 -63 -135 -80 -207 -56 -243 21 -32 34 -31 82 1 107 73 231 210 285 315
l19 39 -24 0 c-55 0 -41 38 21 55 32 9 42 21 97 120 50 90 66 111 86 113 14 2
34 -3 44 -11 17 -13 18 -18 7 -45 -7 -17 -19 -33 -26 -35 -11 -5 -85 -127 -85
-141 0 -4 41 -4 90 0 62 5 90 3 90 -4 0 -10 -53 -24 -160 -39 l-55 -8 -57
-115 c-73 -145 -88 -201 -67 -238 8 -15 21 -28 30 -30 25 -5 107 57 195 146
90 91 111 93 43 5 -48 -62 -138 -142 -189 -168 -53 -27 -117 -26 -141 4 -23
28 -25 83 -4 141 8 24 14 45 12 46 -2 2 -27 -24 -56 -57 -133 -151 -262 -197
-317 -113 -15 23 -16 34 -7 89 6 34 29 102 52 150 23 49 38 92 33 97 -14 14
-101 -51 -155 -116 -28 -34 -81 -102 -118 -151 -49 -65 -78 -94 -102 -103 -56
-20 -57 -16 -26 68 16 44 29 83 29 86 0 3 -31 -23 -70 -59 -82 -76 -129 -101
-188 -102 -35 0 -48 5 -64 25 -18 22 -20 35 -15 100 2 41 8 84 12 95 5 11 -32
-21 -81 -71 -87 -88 -156 -134 -203 -134 -49 0 -121 60 -121 101 0 28 -8 24
-66 -31 -88 -84 -176 -111 -225 -71 -20 16 -24 28 -23 73 1 66 23 109 108 211
36 43 66 87 66 98 0 22 -27 35 -85 40 l-39 4 -86 -120 c-159 -223 -296 -337
-386 -321 -53 10 -68 42 -61 129 3 39 9 83 13 97 4 14 -16 -10 -45 -52 -88
-131 -157 -174 -235 -148 -50 16 -76 53 -76 108 l0 45 -74 -71 c-88 -83 -125
-105 -184 -106 -37 -1 -48 4 -69 29 -23 26 -25 34 -19 90 3 33 9 73 13 90 5
26 -5 18 -76 -57 -126 -133 -211 -165 -284 -107 -14 11 -31 35 -38 53 l-12 34
-69 -58 c-80 -68 -140 -90 -188 -70 -61 25 -65 79 -15 215 4 11 -5 3 -20 -18
-16 -20 -32 -37 -37 -37 -18 0 -6 27 45 94 49 65 97 141 97 152 0 2 -11 4 -24
4 -57 0 -38 45 23 55 33 5 41 12 60 53 13 26 41 77 62 115 42 71 64 82 103 54z
m-304 -122 c29 -26 25 -69 -9 -107 -37 -41 -47 -33 -21 17 33 66 0 81 -102 46
-104 -36 -183 -92 -214 -154 -25 -47 -12 -71 63 -112 125 -69 147 -107 100
-176 -47 -70 -157 -131 -264 -144 -93 -12 -113 49 -33 101 46 31 67 25 27 -7
-15 -11 -27 -29 -27 -40 0 -77 194 32 234 132 16 38 16 43 1 66 -9 14 -30 32
-47 41 -17 10 -50 31 -74 49 l-42 32 -42 -65 c-55 -83 -155 -176 -233 -216
-80 -40 -193 -51 -252 -22 -74 35 -94 119 -49 206 46 89 225 233 318 257 95
24 146 -30 110 -118 -25 -64 -109 -122 -228 -156 -42 -12 -61 -14 -69 -6 -8 8
-7 11 5 11 26 0 151 67 196 106 67 57 90 124 43 124 -37 0 -127 -56 -190 -119
-73 -74 -117 -145 -127 -208 -5 -34 -3 -44 16 -63 19 -19 30 -22 84 -18 158
11 351 177 420 362 31 82 119 152 241 192 54 18 139 12 165 -11z"/>
</g>
</svg>
